<svg width="35" height="35" viewBox="0 0 24 24" fill="none" xmlns="http://www.w3.org/2000/svg">
<path d="M9.51408 14.7069C12.6415 14.6989 15.3007 16.1349 16.2782 19.226C14.308 20.4271 11.9889 20.8896 9.51408 20.8836C7.03921 20.8896 4.72016 20.4271 2.75 19.226C3.72857 16.1316 6.38327 14.6989 9.51408 14.7069Z" stroke="white" stroke-width="1.5" stroke-linecap="square"/>
<path d="M16.0852 18.2325C17.975 18.2371 19.7458 17.8838 21.2502 16.9667C20.5039 14.6064 18.4733 13.5099 16.0852 13.516C14.5809 13.5122 13.2205 13.9439 12.2324 14.8533" stroke="white" stroke-width="1.5" stroke-linecap="square"/>
<circle cx="9.51421" cy="7.35259" r="4.23687" stroke="white" stroke-width="1.5" stroke-linecap="square"/>
<path d="M13.7143 5.67014C14.3046 5.05148 15.1371 4.66602 16.0597 4.66602C17.8498 4.66602 19.301 6.11718 19.301 7.90729C19.301 9.69739 17.8498 11.1486 16.0597 11.1486C14.9654 11.1486 13.9978 10.6063 13.4109 9.77575" stroke="white" stroke-width="1.5" stroke-linecap="square"/>
</svg>
