<svg width="55" height="55" viewBox="0 0 69 69" fill="none" xmlns="http://www.w3.org/2000/svg">
<path d="M65.55 25.875V43.125C65.55 58.65 58.9375 65.55 43.125 65.55H37.375C36.225 65.55 35.075 64.6875 35.075 63.25C35.075 61.8125 35.9375 60.95 37.375 60.95H43.125C56.35 60.95 61.2375 56.35 61.2375 42.8375L61.2375 25.5875C61.2375 12.3625 56.6375 7.47499 43.125 7.47499L25.875 7.47499C12.65 7.47499 7.76251 12.075 7.76251 25.5875L7.76251 43.125C8.05001 56.35 12.65 60.95 25.875 60.95C27.025 60.95 28.175 61.8125 28.175 63.25C28.175 64.6875 27.025 65.2625 25.875 65.2625C10.35 65.2625 3.45001 58.65 3.45001 42.8375L3.45001 25.5875C3.45001 10.0625 10.0625 3.16249 25.875 3.16249L43.125 3.16249C58.65 3.44999 65.55 10.35 65.55 25.875Z" fill="white"/>
<path d="M42.8375 34.5C42.8375 35.075 42.55 35.65 42.2625 35.9375L32.2 46C31.3375 46.8625 29.9 46.8625 29.0375 46C28.175 45.1375 28.175 43.7 29.0375 42.8375L37.6625 34.2125L29.0375 25.5875C28.175 24.725 28.175 23.2875 29.0375 22.425C29.9 21.5625 31.3375 21.5625 32.2 22.425L42.2625 32.4875C42.55 33.35 42.8375 33.925 42.8375 34.5Z" fill="white"/>
</svg>
