<svg width="35" height="35" viewBox="0 0 31 31" fill="none" xmlns="http://www.w3.org/2000/svg">
<path d="M28.2127 11.9437H19.0484V3.90532C22.2603 4.76693 24.963 7.00737 26.3967 10.0568C26.6096 10.5122 27.1497 10.7067 27.6051 10.4916C28.0582 10.2776 28.2539 9.73755 28.041 9.28443C26.1965 5.36652 22.5509 2.59858 18.292 1.88343C18.0254 1.84109 17.7588 1.91318 17.554 2.08481C17.3503 2.25874 17.2336 2.51162 17.2336 2.77937V12.8522C17.2336 13.3545 17.6387 13.7607 18.141 13.7607H28.2127C28.715 13.7607 29.1212 13.3545 29.1212 12.8522C29.1212 12.351 28.715 11.9437 28.2127 11.9437ZM24.5808 16.4154H14.5927V9.41487C14.5927 8.91484 14.1865 8.50748 13.6841 8.50748C13.1818 8.50748 12.7756 8.91484 12.7756 9.41487V17.3239C12.7756 17.8262 13.1818 18.2313 13.6841 18.2313H23.6322C23.1734 23.3164 18.887 27.3121 13.6841 27.3121C8.17685 27.3121 3.69597 22.8312 3.69597 17.3239C3.69597 11.8155 8.17685 7.33463 13.6841 7.33463C14.1865 7.33463 14.5927 6.92728 14.5927 6.42724C14.5927 5.92491 14.1865 5.51871 13.6841 5.51871C7.17564 5.51871 1.87891 10.8143 1.87891 17.3239C1.87891 23.8324 7.17564 29.128 13.6841 29.128C20.1938 29.128 25.4882 23.8324 25.4882 17.3239C25.4882 16.8216 25.0831 16.4154 24.5808 16.4154Z" fill="white"/>
</svg>
